<svg xmlns="http://www.w3.org/2000/svg" viewBox="0 0 600 360" width="600" height="360" role="img" aria-label="Classroom whiteboard with a lesson sketch and desks">
<title>Classroom whiteboard with a lesson sketch and desks</title>
  
  <defs>
    <radialGradient id="g61" cx="0.5" cy="0.35" r="0.6">
      <stop offset="0" stop-color="#ffd000" stop-opacity="0.22"/>
      <stop offset="1" stop-color="#ffd000" stop-opacity="0"/>
    </radialGradient>
    <pattern id="p62" width="40" height="40" patternUnits="userSpaceOnUse">
      <path d="M40 0H0V40" fill="none" stroke="#ffffff" stroke-opacity="0.045"/>
    </pattern>
    <pattern id="d63" width="10" height="10" patternUnits="userSpaceOnUse">
      <circle cx="5" cy="5" r="1.3" fill="#ffd000"/>
    </pattern>
    <radialGradient id="mg65" cx="0.5" cy="0.35" r="0.45">
      <stop offset="0" stop-color="#fff" stop-opacity="0.35"/>
      <stop offset="1" stop-color="#fff" stop-opacity="0"/>
    </radialGradient>
    <mask id="m64"><rect width="600" height="360" fill="url(#mg65)"/></mask>
  </defs>
  <rect width="600" height="360" fill="#0a0a0a"/>
  <rect width="600" height="360" fill="url(#p62)"/>
  <rect width="600" height="360" fill="url(#d63)" mask="url(#m64)"/>
  <rect width="600" height="360" fill="url(#g61)"/>
  <rect x="80" y="30" width="440" height="220" rx="12" fill="#f5f5f5"/>
  <rect x="80" y="30" width="440" height="220" rx="12" fill="none" stroke="#3a3a3a" stroke-width="6"/>
  <rect x="110" y="60" width="170" height="120" rx="8" fill="none" stroke="#0a0a0a" stroke-width="3"/>
  <circle cx="160" cy="105" r="20" fill="#ffd000"/>
  <path d="M110 180 L170 130 L210 160 L245 135 L280 180" fill="none" stroke="#0a0a0a" stroke-width="3" stroke-linejoin="round"/>
  <text x="310" y="120" font-family="Georgia, serif" font-size="64" fill="#0a0a0a">Aa</text>
  <path d="M310 150 h170 M310 172 h130 M310 194 h150" stroke="#525252" stroke-width="5" stroke-linecap="round"/>
  <path d="M452 70 l14 14 26 -30" fill="none" stroke="#ffd000" stroke-width="5" stroke-linecap="round"/>
  <path d="M300 250 v30" stroke="#3a3a3a" stroke-width="6"/>
  <rect x="70" y="296" width="120" height="16" rx="8" fill="#1c1c1c" stroke="#3a3a3a"/>
    <circle cx="130" cy="276" r="16" fill="#525252"/><rect x="240" y="296" width="120" height="16" rx="8" fill="#1c1c1c" stroke="#3a3a3a"/>
    <circle cx="300" cy="276" r="16" fill="#ffd000"/><rect x="410" y="296" width="120" height="16" rx="8" fill="#1c1c1c" stroke="#3a3a3a"/>
    <circle cx="470" cy="276" r="16" fill="#525252"/>

</svg>
