<svg xmlns="http://www.w3.org/2000/svg" viewBox="0 0 1600 900" width="1600" height="900" role="img" aria-label="Rising skill steps with an open book and progress bars">
<title>Rising skill steps with an open book and progress bars</title>
  
  <defs>
    <radialGradient id="g36" cx="0.72" cy="0.4" r="0.6">
      <stop offset="0" stop-color="#ffd000" stop-opacity="0.3"/>
      <stop offset="1" stop-color="#ffd000" stop-opacity="0"/>
    </radialGradient>
    <pattern id="p37" width="40" height="40" patternUnits="userSpaceOnUse">
      <path d="M40 0H0V40" fill="none" stroke="#ffffff" stroke-opacity="0.045"/>
    </pattern>
    <pattern id="d38" width="10" height="10" patternUnits="userSpaceOnUse">
      <circle cx="5" cy="5" r="1.3" fill="#ffd000"/>
    </pattern>
    <radialGradient id="mg40" cx="0.72" cy="0.4" r="0.45">
      <stop offset="0" stop-color="#fff" stop-opacity="0.35"/>
      <stop offset="1" stop-color="#fff" stop-opacity="0"/>
    </radialGradient>
    <mask id="m39"><rect width="1600" height="900" fill="url(#mg40)"/></mask>
  </defs>
  <rect width="1600" height="900" fill="#0a0a0a"/>
  <rect width="1600" height="900" fill="url(#p37)"/>
  <rect width="1600" height="900" fill="url(#d38)" mask="url(#m39)"/>
  <rect width="1600" height="900" fill="url(#g36)"/>
  <rect x="900" y="610" width="110" height="150" rx="10" fill="#141414" stroke="#3a3a3a" stroke-width="2"/>
     <text x="955" y="740" text-anchor="middle" font-family="ui-monospace, SFMono-Regular, Menlo, Consolas, monospace" font-size="18" letter-spacing="2" fill="#525252">L1</text><rect x="1020" y="520" width="110" height="240" rx="10" fill="#141414" stroke="#3a3a3a" stroke-width="2"/>
     <text x="1075" y="740" text-anchor="middle" font-family="ui-monospace, SFMono-Regular, Menlo, Consolas, monospace" font-size="18" letter-spacing="2" fill="#525252">L2</text><rect x="1140" y="430" width="110" height="330" rx="10" fill="#141414" stroke="#3a3a3a" stroke-width="2"/>
     <text x="1195" y="740" text-anchor="middle" font-family="ui-monospace, SFMono-Regular, Menlo, Consolas, monospace" font-size="18" letter-spacing="2" fill="#525252">L3</text><rect x="1260" y="340" width="110" height="420" rx="10" fill="#141414" stroke="#3a3a3a" stroke-width="2"/>
     <text x="1315" y="740" text-anchor="middle" font-family="ui-monospace, SFMono-Regular, Menlo, Consolas, monospace" font-size="18" letter-spacing="2" fill="#525252">L4</text><rect x="1380" y="250" width="110" height="510" rx="10" fill="#ffd000" stroke="#ffd000" stroke-width="2"/>
     <text x="1435" y="740" text-anchor="middle" font-family="ui-monospace, SFMono-Regular, Menlo, Consolas, monospace" font-size="18" letter-spacing="2" fill="#0a0a0a">L5</text>
  <path d="M955 580 L1075 490 L1195 400 L1315 310 L1435 210" fill="none" stroke="#f5f5f5" stroke-width="3" stroke-dasharray="2 12" stroke-linecap="round"/>
  <path d="M1435 210 l6 22 22 6 -22 6 -6 22 -6 -22 -22 -6 22 -6z" fill="#f5f5f5"/>
  <g transform="translate(880 150) scale(0.85)">
    <path d="M0 20 Q 90 -10 180 20 V 150 Q 90 120 0 150Z" fill="#1c1c1c" stroke="#3a3a3a" stroke-width="2"/>
    <path d="M180 20 Q 270 -10 360 20 V 150 Q 270 120 180 150Z" fill="#1c1c1c" stroke="#3a3a3a" stroke-width="2"/>
    <rect x="24" y="40" width="130" height="8" rx="4" fill="#3a3a3a"/><rect x="24" y="62" width="110" height="8" rx="4" fill="#3a3a3a"/><rect x="24" y="84" width="120" height="8" rx="4" fill="#3a3a3a"/><rect x="24" y="106" width="80" height="8" rx="4" fill="#3a3a3a"/>
    <rect x="204" y="40" width="130" height="8" rx="4" fill="#ffd000"/><rect x="204" y="62" width="100" height="8" rx="4" fill="#3a3a3a"/><rect x="204" y="84" width="120" height="8" rx="4" fill="#3a3a3a"/>
  </g>

</svg>
