<svg xmlns="http://www.w3.org/2000/svg" viewBox="0 0 800 600" width="800" height="600" role="img" aria-label="SaaS analytics dashboard with charts and metrics">
<title>SaaS analytics dashboard with charts and metrics</title>
  
  <defs>
    <radialGradient id="g16" cx="0.6" cy="0.3" r="0.6">
      <stop offset="0" stop-color="#ffd000" stop-opacity="0.22"/>
      <stop offset="1" stop-color="#ffd000" stop-opacity="0"/>
    </radialGradient>
    <pattern id="p17" width="40" height="40" patternUnits="userSpaceOnUse">
      <path d="M40 0H0V40" fill="none" stroke="#ffffff" stroke-opacity="0.045"/>
    </pattern>
    <pattern id="d18" width="10" height="10" patternUnits="userSpaceOnUse">
      <circle cx="5" cy="5" r="1.3" fill="#ffd000"/>
    </pattern>
    <radialGradient id="mg20" cx="0.6" cy="0.3" r="0.45">
      <stop offset="0" stop-color="#fff" stop-opacity="0.35"/>
      <stop offset="1" stop-color="#fff" stop-opacity="0"/>
    </radialGradient>
    <mask id="m19"><rect width="800" height="600" fill="url(#mg20)"/></mask>
  </defs>
  <rect width="800" height="600" fill="#0a0a0a"/>
  <rect width="800" height="600" fill="url(#p17)"/>
  <rect width="800" height="600" fill="url(#d18)" mask="url(#m19)"/>
  <rect width="800" height="600" fill="url(#g16)"/>
  
  <g>
    <rect x="70" y="78" width="680" height="470" rx="14" fill="#000" opacity="0.55"/>
    <rect x="60" y="60" width="680" height="470" rx="14" fill="#141414" stroke="#3a3a3a" stroke-width="1.5"/>
    <path d="M60 96H740" stroke="#3a3a3a" stroke-width="1.5"/>
    <circle cx="80" cy="78" r="5" fill="#3a3a3a"/>
    <circle cx="97" cy="78" r="5" fill="#3a3a3a"/>
    <circle cx="114" cy="78" r="5" fill="#ffd000"/>
    <text x="400" y="83" text-anchor="middle" font-family="ui-monospace, SFMono-Regular, Menlo, Consolas, monospace" font-size="12" letter-spacing="1.5" fill="#525252">app.yourproduct.com</text>
  </g>
  <rect x="76" y="112" width="120" height="402" rx="10" fill="#1c1c1c"/>
  <rect x="92" y="130" width="88" height="24" rx="6" fill="#ffd000"/>
  <rect x="92" y="176" width="80" height="8" rx="4" fill="#3a3a3a"/><rect x="92" y="206" width="64" height="8" rx="4" fill="#3a3a3a"/><rect x="92" y="236" width="74" height="8" rx="4" fill="#3a3a3a"/><rect x="92" y="266" width="58" height="8" rx="4" fill="#3a3a3a"/><rect x="92" y="296" width="70" height="8" rx="4" fill="#3a3a3a"/>
  <rect x="214" y="112" width="160" height="96" rx="10" fill="#ffd000"/>
    <text x="230" y="140" text-anchor="start" font-family="ui-monospace, SFMono-Regular, Menlo, Consolas, monospace" font-size="11" letter-spacing="2" fill="#0a0a0a">MRR</text>
    <text x="230" y="184" font-family="ui-monospace, SFMono-Regular, Menlo, Consolas, monospace" font-size="30" font-weight="700" fill="#0a0a0a">$48k</text><rect x="386" y="112" width="160" height="96" rx="10" fill="#1c1c1c"/>
    <text x="402" y="140" text-anchor="start" font-family="ui-monospace, SFMono-Regular, Menlo, Consolas, monospace" font-size="11" letter-spacing="2" fill="#525252">USERS</text>
    <text x="402" y="184" font-family="ui-monospace, SFMono-Regular, Menlo, Consolas, monospace" font-size="30" font-weight="700" fill="#f5f5f5">12.4k</text><rect x="558" y="112" width="160" height="96" rx="10" fill="#1c1c1c"/>
    <text x="574" y="140" text-anchor="start" font-family="ui-monospace, SFMono-Regular, Menlo, Consolas, monospace" font-size="11" letter-spacing="2" fill="#525252">CHURN</text>
    <text x="574" y="184" font-family="ui-monospace, SFMono-Regular, Menlo, Consolas, monospace" font-size="30" font-weight="700" fill="#f5f5f5">1.8%</text>
  <rect x="214" y="224" width="332" height="290" rx="10" fill="#1c1c1c"/>
  <path d="M234 280H526" stroke="#2a2a2a" /><path d="M234 330H526" stroke="#2a2a2a" /><path d="M234 380H526" stroke="#2a2a2a" /><path d="M234 430H526" stroke="#2a2a2a" />
  <path d="M234 470 L280 430 L326 446 L372 380 L418 396 L464 320 L526 290 L526 490 L234 490Z" fill="#ffd000" opacity="0.15"/>
  <path d="M234 470 L280 430 L326 446 L372 380 L418 396 L464 320 L526 290" fill="none" stroke="#ffd000" stroke-width="3.5" stroke-linejoin="round" stroke-linecap="round"/>
  <circle cx="464" cy="320" r="7" fill="#0a0a0a" stroke="#ffd000" stroke-width="3"/>
  <text x="234" y="254" text-anchor="start" font-family="ui-monospace, SFMono-Regular, Menlo, Consolas, monospace" font-size="11" letter-spacing="2" fill="#525252">REVENUE · 12 MONTHS</text>
  <rect x="558" y="224" width="160" height="290" rx="10" fill="#1c1c1c"/>
  <circle cx="638" cy="320" r="52" fill="none" stroke="#3a3a3a" stroke-width="20"/>
  <circle cx="638" cy="320" r="52" fill="none" stroke="#ffd000" stroke-width="20" stroke-dasharray="230 400" transform="rotate(-90 638 320)"/>
  <rect x="578" y="410" width="120" height="8" rx="4" fill="#ffd000"/><rect x="578" y="436" width="100" height="8" rx="4" fill="#3a3a3a"/><rect x="578" y="462" width="110" height="8" rx="4" fill="#3a3a3a"/>

</svg>
